# xmcd
#
# Track frame offsets:
#	150
#	19954
#	36485
#	54925
#	67659
#	82184
#	100011
#	118476
#	136169
#	155751
#	176575
#
# Disc length: 2563 seconds
#
# Revision: 0
# Processed by: cddbd v1.5.2PL0 Copyright (c) Steve Scherf et al.
# Submitted via: audiograbber 1.83.01
#
DISCID=940a010b
DTITLE=Little Texas - Karaoke
DYEAR=1900
DGENRE=
TTITLE0=Little Texas - Amy's Back In Town
TTITLE1=Little Texas - God Bless Texas
TTITLE2=Little Texas - I'd Rather Miss You
TTITLE3=Little Texas - Life Goes On
TTITLE4=Little Texas - Stop On A Dime
TTITLE5=Little Texas - You and Forever and Me
TTITLE6=Little Texas - What Might Have Been
TTITLE7=Little Texas - Kick A Little
TTITLE8=Little Texas - My Love
TTITLE9=Little Texas - Southern Grace
TTITLE10=Little Texas - What Were You Thinkin'
EXTD=
EXTT0=
EXTT1=
EXTT2=
EXTT3=
EXTT4=
EXTT5=
EXTT6=
EXTT7=
EXTT8=
EXTT9=
EXTT10=
PLAYORDER=
